<?xml version="1.0" encoding="utf-8"?>
<!-- Generator: Adobe Illustrator 28.4.1, SVG Export Plug-In . SVG Version: 6.00 Build 0)  -->
<svg version="1.1" id="图层_1" xmlns="http://www.w3.org/2000/svg" xmlns:xlink="http://www.w3.org/1999/xlink" x="0px" y="0px"
     width="100" height="25" viewBox="0 0 60 15" style="enable-background:new 0 0 100 25;" xml:space="preserve">
<style type="text/css">
	.st0{fill:#02389D;}
	.st1{fill:#02389C;}
	.st2{fill:#F9C003;}
	.st3{fill:#F9C004;}
	.st4{fill:#FFFFFF;}
	.st5{fill:#1C489D;}
</style>
    <rect id="Rectangle-Copy-35" fill="#087CFA" opacity="0.16" x="0" y="0" width="60" height="15" rx="4"></rect>
    <path class="st0" d="M8.3,7.1c-0.1,0-0.2,0-0.3,0C7.7,7,7.5,6.9,7.4,6.6C7.3,6.5,7.3,6.3,7.2,6.1c0-0.3,0-0.6,0-0.9
	c0,0,0-0.1,0.1-0.1c0.1,0,0.1,0,0.2,0c0,0,0,0,0,0c0,0,0,0,0,0c0,0.2,0.1,0.3,0.3,0.3c0.1,0,0.2,0,0.3,0c0.9,0,1.8,0,2.7,0
	c1,0,1.7,0.4,2.4,1.1c0.4,0.5,0.7,1,0.8,1.7c0.1,0.3,0.1,0.6,0.1,0.8c0,0.9,0,1.8,0,2.7c0,0.2,0,0.4,0,0.6c0,0,0,0.1,0,0.1
	c0,0.2,0.1,0.2,0.3,0.2c0,0,0,0,0,0c0,0,0.1,0,0.1,0.1c0,0.1,0,0.1,0,0.2c0,0,0,0.1-0.1,0.1c-0.1,0-0.3,0-0.4,0c-0.3,0-0.7,0-1-0.1
	c-0.2,0-0.3-0.1-0.4-0.2c-0.1,0-0.1-0.1-0.2-0.2c0,0,0,0-0.1,0c-0.2,0.1-0.3,0.3-0.5,0.4c-0.5,0.3-1,0.4-1.5,0.4
	c-0.5,0-1-0.1-1.4-0.3c-0.5-0.2-1-0.6-1.4-1.1C7,11.5,6.8,10.7,6.8,9.9C6.8,9.2,7,8.6,7.4,8C7.6,7.7,7.9,7.4,8.3,7.1
	C8.2,7.1,8.2,7.1,8.3,7.1z M10.5,12.5c1.4,0,2.5-1.1,2.5-2.5c0-1.5-1.2-2.5-2.5-2.5C9.2,7.4,8,8.5,8,9.9C8,11.2,9.1,12.4,10.5,12.5z
	"/>
    <path class="st1" d="M6.2,8.4c0,1.2,0,2.5,0,3.7c0,0.1,0,0.2,0,0.2c0.1,0.3,0.2,0.4,0.5,0.5c0.1,0,0.1,0,0.2,0c0,0,0.1,0,0.1,0.1
	c0,0.1,0,0.1,0,0.2c0,0,0,0.1,0,0.1c0,0,0,0-0.1,0c-0.5,0-1.1,0-1.6,0c-0.2,0-0.3,0-0.5,0c-0.3-0.1-0.5-0.2-0.6-0.5
	c0-0.1,0-0.2,0-0.2c0-1.7,0-3.5,0-5.2c0-0.9,0-1.7,0-2.6c0-0.1,0-0.1-0.1-0.1c-0.3,0-0.6,0-0.9,0c-0.1,0-0.2,0-0.3,0
	c-0.2,0-0.2,0.1-0.3,0.3c0,0,0,0,0,0c0,0,0,0.1-0.1,0.1c-0.1,0-0.1,0-0.2,0c0,0-0.1,0-0.1-0.1c0-0.1,0-0.3,0-0.4c0-0.2,0-0.4,0-0.6
	c0-0.1,0.1-0.3,0.1-0.4c0.1-0.2,0.3-0.4,0.6-0.4c0.1,0,0.2,0,0.3,0c1.8,0,3.7,0,5.5,0c0.1,0,0.2,0,0.3,0c0.2,0,0.3-0.1,0.3-0.3
	c0,0,0-0.1,0.1-0.1c0.1,0,0.1,0,0.2,0c0,0,0,0,0,0c0,0.4,0,0.9-0.1,1.3c0,0.1-0.1,0.1-0.1,0.2C9.4,4.4,9.3,4.5,9.1,4.5
	c-0.1,0-0.1,0-0.2,0c-0.8,0-1.7,0-2.5,0c0,0,0,0-0.1,0c-0.1,0-0.1,0-0.1,0.1c0,1,0,2.1,0,3.2C6.2,8,6.2,8.2,6.2,8.4
	C6.2,8.4,6.2,8.4,6.2,8.4z"/>
    <path class="st2" d="M14.6,4c0.1,0,0.1,0.1,0.2,0.1c0.3,0.2,0.4,0.5,0.4,0.8c0,0.3-0.2,0.5-0.4,0.7c-0.2,0.2-0.4,0.2-0.7,0.2
	c-0.2,0-0.4,0-0.6-0.1c-0.4-0.1-0.6-0.4-0.7-0.7c0-0.1,0-0.2,0.1-0.3c0,0,0.1,0,0.1-0.1c0.1,0,0.2,0,0.2,0.1c0,0,0.1,0.1,0.1,0.1
	c0.1,0.1,0.1,0.2,0.2,0.2c0.1,0.1,0.3,0.1,0.5,0.1c0.1,0,0.2-0.1,0.2-0.2c0-0.1,0.1-0.2,0-0.2c0-0.2-0.1-0.3-0.2-0.3
	c-0.1,0-0.1,0-0.2-0.1c-0.1,0-0.1,0-0.2-0.1c-0.1-0.1-0.2-0.1-0.2-0.3c0-0.1,0.1-0.2,0.2-0.3c0,0,0.1,0,0.2-0.1
	c0.1,0,0.2-0.1,0.2-0.1c0.1-0.1,0.1-0.2,0.1-0.3c0-0.1-0.1-0.2-0.2-0.2c-0.1,0-0.2,0-0.4,0.1c-0.1,0-0.1,0.1-0.2,0.2
	c0,0.1-0.1,0.1-0.1,0.1c-0.1,0.1-0.3,0.1-0.4-0.1c-0.1-0.1-0.1-0.2,0-0.3c0.1-0.2,0.2-0.4,0.5-0.5c0.2-0.1,0.3-0.1,0.5-0.1
	c0.5,0,1,0.3,1.1,0.8c0,0.3-0.1,0.5-0.3,0.7C14.7,3.9,14.6,4,14.6,4z"/>
    <path class="st3" d="M12.4,3.6c0,0.1,0,0.1,0,0.2c0,0,0,0.1,0.1,0.1c0.1,0,0.2,0,0.3,0c0,0,0.1,0,0.1,0c0.1,0,0.2,0.1,0.2,0.2
	c0,0,0,0.1,0,0.1c0,0.1-0.1,0.2-0.2,0.2c-0.1,0-0.2,0-0.3,0c-0.2,0-0.1,0-0.1,0.1c0,0.1,0,0.2,0,0.3c0,0.1-0.1,0.2-0.2,0.2
	c-0.1,0-0.1,0-0.2,0c-0.1,0-0.2-0.1-0.2-0.2c0,0,0,0,0-0.1c0-0.1,0-0.2,0-0.3s0-0.1-0.1-0.1c-0.1,0-0.2,0-0.3,0
	c-0.2,0-0.4-0.2-0.3-0.5c0-0.1,0.1-0.1,0.1-0.1c0,0,0.1,0,0.1,0c0.1,0,0.2,0,0.3,0c0.1,0,0.1,0,0.1-0.1c0-0.1,0-0.2,0-0.3
	c0,0,0-0.1,0-0.1c0-0.2,0.3-0.3,0.5-0.2c0.1,0.1,0.1,0.1,0.1,0.2C12.4,3.5,12.4,3.6,12.4,3.6C12.4,3.6,12.4,3.6,12.4,3.6z"/>
    <circle class="st0" cx="10.6" cy="10" r="1.8"/>
    <circle class="st2" cx="10.9" cy="9.8" r="1"/>
    <circle class="st4" cx="11.1" cy="9.6" r="0.4"/>
    <g>
	<path class="st5" d="M20.1,10.4c-0.1,0.1-0.2,0.1-0.3,0.1c-0.1,0-0.2,0-0.3-0.1c-0.1-0.1-0.2-0.2-0.2-0.2c0-0.1,0-0.1,0-0.1
		c0-0.1,0-0.1,0-0.1c0-0.1,0-0.1,0-0.2c0-0.1,0-0.1,0-0.2c0-0.1,0-0.2,0-0.3c0-0.2,0-0.3,0-0.4c-0.3,0.1-0.5,0.1-0.7,0.1
		c-0.2,0-0.4,0.1-0.6,0.1c-0.2,0-0.4,0.1-0.6,0.1l-0.7,0.1c0,0.2-0.1,0.4-0.1,0.7c0,0.2,0,0.4,0,0.6c0,0.1,0,0.1-0.1,0.2
		c-0.1,0.1-0.1,0.1-0.2,0.1c0,0-0.1,0-0.1,0c-0.1,0-0.1,0-0.2-0.1c-0.1,0-0.1-0.1-0.1-0.1c-0.1,0-0.1-0.1-0.1-0.1c0-0.1,0-0.2,0-0.3
		c0-0.1,0-0.2,0.1-0.3l0.1-0.3C16,9.5,16,9.3,16,9.2c-0.1,0-0.2,0-0.2,0c-0.1,0-0.1,0-0.2-0.1c0,0-0.1-0.1-0.1-0.1
		c0,0-0.1-0.1-0.1-0.2c0-0.1,0-0.1,0.1-0.1c0,0,0-0.1,0.1-0.1c0,0,0.1-0.1,0.1-0.1c0,0,0.1,0,0.2,0c0.1,0,0.1,0,0.2,0
		c0.1,0,0.1,0,0.2,0.1c0-0.2,0.1-0.4,0.2-0.6c0.1-0.3,0.2-0.5,0.3-0.8c0.1-0.3,0.2-0.6,0.4-0.8c0.1-0.3,0.3-0.5,0.5-0.8
		c0.2-0.2,0.3-0.4,0.5-0.6c0.2-0.1,0.4-0.2,0.5-0.2c0.1,0,0.2,0,0.3,0.1C19,4.9,19.1,5,19.2,5.1c0.1,0.1,0.1,0.2,0.2,0.3
		c0.1,0.1,0.1,0.2,0.1,0.3c0.1,0.2,0.1,0.4,0.2,0.6l0.1,0.6l0.1,0.6L20,8.1l0.1,0.6c0,0.2,0,0.4,0.1,0.6c0,0.2,0,0.3,0,0.5
		c0,0.1,0,0.2,0,0.3C20.2,10.2,20.1,10.3,20.1,10.4z M19.2,7.6c0-0.2-0.1-0.5-0.1-0.7c0-0.1-0.1-0.2-0.1-0.3c0-0.1,0-0.2-0.1-0.4
		l-0.1-0.4c0-0.1-0.1-0.3-0.1-0.4c0,0,0,0-0.1-0.1c0,0-0.1,0-0.1,0c-0.1,0-0.1,0-0.2,0.1c-0.1,0.1-0.2,0.2-0.3,0.3
		c-0.3,0.4-0.6,0.8-0.8,1.3c-0.2,0.5-0.4,1-0.5,1.5c0.4,0,0.8,0,1.2-0.1c0.4-0.1,0.8-0.1,1.2-0.2C19.3,8.1,19.2,7.8,19.2,7.6z"/>
        <path class="st5" d="M22.4,10.4c-0.4,0-0.8,0.1-1.4,0.1c-0.1,0-0.2,0-0.2-0.1c-0.1-0.1-0.1-0.2-0.1-0.2c0-0.1,0.1-0.2,0.2-0.2
		c0,0,0.2,0,0.4,0l0-2.3c0-0.7,0-1.4,0-2c-0.1,0-0.2,0-0.2,0c-0.1,0-0.2,0-0.2-0.1c-0.1-0.1-0.1-0.2-0.1-0.3c0-0.1,0.1-0.2,0.2-0.2
		c0.3,0,0.6,0,0.8-0.1c0.1,0,0.2,0,0.3-0.1c0.1,0,0.2-0.1,0.2-0.1c0.1,0,0.1,0.1,0.2,0.1c0.1,0.1,0.1,0.2,0.1,0.3
		c0,0.1-0.1,0.2-0.3,0.2c-0.1,0-0.2,0-0.3,0c-0.1,0.7-0.1,1.3-0.1,1.9c0,1,0,1.8,0.1,2.4c0.1,0,0.2-0.1,0.3-0.1
		c0.1,0,0.2,0.1,0.3,0.1c0.1,0.1,0.1,0.2,0.1,0.2C22.6,10.3,22.5,10.4,22.4,10.4z"/>
        <path class="st5" d="M23.5,9c0-0.2,0.1-0.4,0.2-0.7c0.1-0.2,0.2-0.5,0.5-0.9c-0.1,0-0.1,0-0.2,0c-0.5,0-0.7-0.2-0.7-0.6
		c0-0.1,0-0.3,0.1-0.6c0.1-0.3,0.3-0.6,0.5-1c0.3-0.4,0.5-0.7,0.7-0.8c0,0,0-0.1,0.1-0.1c0,0,0.1,0,0.1,0c0.1,0,0.2,0,0.3,0.1
		c0.1,0.1,0.2,0.2,0.2,0.3c0,0.1,0,0.1-0.1,0.1c-0.2,0.1-0.5,0.4-0.8,0.9c-0.4,0.5-0.5,0.9-0.5,1.2C23.8,7,23.8,7,24,7
		c0.2,0,0.3,0,0.6-0.1c0.2-0.2,0.3-0.4,0.5-0.6c0,0,0-0.1,0-0.1c0,0,0.1,0,0.2,0c0.1,0,0.2,0.1,0.3,0.1c0.1,0.1,0.2,0.2,0.2,0.3
		c0,0.1,0,0.1,0,0.1c0,0-0.1,0.1-0.1,0.1c-0.2,0.1-0.5,0.4-0.8,0.9c-0.4,0.5-0.6,0.9-0.6,1.2c0,0.1,0.1,0.1,0.2,0.1
		c0.3,0,0.6-0.2,1.1-0.5c0,0,0.1,0,0.1,0c0.2,0,0.3,0.1,0.3,0.3c0,0.1,0,0.2-0.1,0.2c-0.2,0.2-0.4,0.3-0.6,0.3
		c-0.2,0.1-0.4,0.2-0.6,0.2C23.8,9.6,23.5,9.4,23.5,9z M26.2,6c-0.2-0.1-0.3-0.2-0.3-0.5l0-0.1c0.7-0.2,1.3-0.3,1.9-0.4
		c-0.1-0.1-0.2-0.2-0.3-0.2c-0.1-0.1-0.2-0.1-0.2-0.2c0,0,0,0,0-0.1c0-0.1,0-0.1,0.1-0.2c0.1-0.1,0.1-0.1,0.2-0.1c0,0,0.1,0,0.1,0.1
		c0,0,0.1,0.1,0.2,0.1c0.1,0.1,0.2,0.2,0.5,0.4l0.1,0.1c0,0,0.1,0,0.1,0.1v0c0.2,0,0.5,0,0.7,0c0.2,0,0.3,0,0.5,0.1
		c0.2,0,0.3,0.1,0.4,0.2c0.1,0.1,0.2,0.3,0.2,0.4c0,0.3,0,0.6-0.1,0.9c0,0.1-0.1,0.2-0.1,0.3c0.1,0,0.1,0.1,0.1,0.1
		c0,0.1,0,0.2-0.1,0.2c-0.1,0.1-0.2,0.1-0.3,0.1c-0.3,0-0.8,0-1.4,0.1c-0.5,0-0.9,0.1-1.2,0.1l-0.5,0.1c0,0-0.1,0-0.1,0
		c0,0.2-0.1,0.3-0.1,0.5l-0.4,2.4C26,11,26,11.4,26,11.8c0,0.1-0.1,0.2-0.2,0.2c-0.1,0-0.1-0.1-0.2-0.2c-0.1-0.1-0.1-0.2-0.1-0.3
		c0-0.1,0-0.1,0-0.2l0.1-0.3c0-0.1,0-0.2,0.1-0.4l0,0c-0.1,0-0.2,0-0.3,0.1c-0.2,0-0.4,0.1-0.8,0.3c-0.3,0.1-0.6,0.2-0.7,0.3
		c-0.1,0.1-0.2,0.1-0.3,0.1c-0.1,0-0.1,0-0.2-0.1c-0.1-0.1-0.1-0.1-0.1-0.2c0-0.1,0-0.2,0-0.3l0.1,0c0.1,0,0.3,0,0.4-0.1
		c0.2-0.1,0.4-0.1,0.6-0.2c0.2-0.1,0.4-0.2,0.6-0.2c0.2-0.1,0.3-0.1,0.4-0.1c0.1,0,0.1,0,0.2,0.1c0-0.2,0.1-0.5,0.1-0.8
		C26,8.4,26.1,7.2,26.3,6c0,0,0,0,0-0.1C26.2,6,26.2,6,26.2,6z M26.8,7c0.1,0,0.4,0,0.9-0.1c0.5,0,0.9-0.1,1.1-0.1
		c0.2,0,0.4,0,0.6-0.1c0,0,0,0,0-0.1c0,0,0,0,0-0.1c0.2-0.3,0.2-0.7,0.2-1c0-0.2-0.1-0.3-0.4-0.3c-0.8,0-1.6,0.1-2.4,0.4l0,0
		c0,0-0.1,0.1-0.1,0.2c-0.1,0.2-0.1,0.6-0.2,1.1C26.7,7,26.7,7,26.8,7z M27.1,11.6c0,0,0,0.1,0,0.2c0,0.1,0,0.2-0.1,0.2
		C27,12.1,27,12.1,27,12.1c-0.1,0-0.2,0-0.2-0.1c-0.1-0.1-0.1-0.3-0.1-0.4c0-0.9,0-1.9,0-2.9c0,0,0-0.1,0-0.2c0-0.1,0.1-0.1,0.2-0.1
		c0.1,0,0.1,0,0.2,0.1c0,0,0.1,0,0.1,0.1c0.9-0.2,1.7-0.3,2.3-0.3c0.2,0,0.4,0,0.5,0.1c0.1,0.1,0.2,0.1,0.4,0.2
		c0.1,0.1,0.2,0.3,0.2,0.5c0,0.2,0,1.1-0.1,2.7v0.2c0,0-0.1,0.1-0.1,0.1c-0.1,0.1-0.2,0.1-0.2,0.1c-0.1,0-0.1-0.1-0.2-0.2
		c0,0,0-0.1,0-0.2c0-0.6,0-1.1,0.1-1.5c-0.2,0-0.3,0-0.3,0c-0.1,0-0.3,0-0.5,0l0,1.3c0,0,0,0.1,0,0.2c0,0-0.1,0-0.1,0
		c-0.2,0-0.3-0.1-0.3-0.2l0-1.3c0,0-0.1,0-0.1,0c-0.2,0-0.3,0-0.5,0l0,1.2c0,0,0,0.1,0,0.2c-0.1,0-0.1,0-0.1,0
		c-0.2,0-0.3-0.1-0.3-0.2l0-1.1l-0.3,0c-0.2,0-0.4,0.1-0.4,0.1h0C27.1,11,27.1,11.4,27.1,11.6z M27.4,8.8c-0.1,0-0.1,0.1-0.2,0.1
		c0,0-0.1,0-0.1,0v1h0.3c0,0,0.2,0,0.4,0l0-1.2C27.6,8.8,27.5,8.8,27.4,8.8z M28.2,8.6C28.2,8.7,28.2,8.7,28.2,8.6
		c0,0.1,0,0.1,0,0.1l0,1.1c0.2,0,0.4,0,0.6,0l0-1.3C28.6,8.6,28.4,8.6,28.2,8.6z M30,9c0-0.1,0-0.3-0.1-0.3
		c-0.1-0.1-0.3-0.1-0.6-0.1c-0.1,0-0.1,0-0.1,0v0c0,0.1,0,0.1,0,0.1l0,1.2c0.2,0,0.4,0,0.6,0c0.1,0,0.1,0,0.1,0c0,0,0,0,0.1,0h0
		C30,9.3,30,9,30,9z"/>
        <path class="st5" d="M34.2,4.8C34,4.9,33.8,5,33.5,5.1c0,0,0,0,0,0c0.1,0.1,0.1,0.1,0.1,0.2c0,0.1,0,0.2,0,0.4c0,0.1,0,0.4,0,0.9
		c0.1,0,0.3,0,0.4,0c0.2,0,0.3,0,0.4,0c0.1,0,0.2,0.1,0.2,0.1c0,0.1,0,0.2,0,0.2c0,0.1,0,0.1-0.1,0.1c-0.1,0-0.1,0-0.2,0
		c-0.1,0-0.2,0-0.3,0c-0.1,0-0.3,0-0.5,0v0.8l0.2,0.1c0.1,0.1,0.3,0.2,0.4,0.4c0.2,0.2,0.3,0.2,0.3,0.3l0.1,0.1c0,0,0,0,0,0
		c0,0.1,0,0.2,0,0.2c0,0.1-0.1,0.1-0.1,0.2c-0.1,0-0.1,0-0.2,0c0,0-0.1,0-0.1-0.1c0-0.1-0.1-0.2-0.2-0.3c-0.1-0.1-0.2-0.3-0.4-0.4
		v2.1c0,0.5,0,0.8,0.1,0.9c0,0.1,0,0.3-0.1,0.4C33.6,12,33.5,12,33.4,12c-0.1,0-0.2,0-0.2-0.1c-0.1-0.1-0.2-0.6-0.2-1.4
		c0-0.7,0-1.4,0-2.1c-0.1,0.2-0.3,0.5-0.5,0.8c-0.2,0.4-0.4,0.7-0.4,0.9c0,0.1,0,0.1-0.1,0.1c-0.1,0.1-0.1,0.1-0.2,0.1
		c-0.1,0-0.1,0-0.2-0.1c-0.1-0.1-0.1-0.2-0.1-0.3c0,0,0-0.1,0-0.1c0,0,0.1-0.1,0.2-0.2c0.1-0.1,0.1-0.2,0.2-0.4
		c0.1-0.2,0.3-0.4,0.5-0.8c0.2-0.4,0.4-0.6,0.5-0.7c0,0,0,0,0,0c0-0.2,0-0.4,0-0.7c-0.3,0-0.7,0.1-1,0.2c-0.1,0.1-0.2,0.1-0.2,0.1
		c-0.1,0-0.1-0.1-0.2-0.2c-0.1-0.1-0.1-0.2-0.1-0.3c0,0,0-0.1,0.1-0.1c0.4-0.1,0.8-0.2,1.2-0.2l0.2,0c0-0.2,0-0.5,0-0.7
		c0-0.2,0-0.4,0-0.6c-0.2,0.1-0.3,0.2-0.5,0.3c-0.1,0.1-0.2,0.1-0.3,0.2c-0.1,0-0.1,0-0.2,0c-0.2,0-0.2-0.1-0.2-0.3
		c0-0.1,0-0.2,0.1-0.3c0.1,0,0.2,0,0.3-0.1C32.4,5,32.7,4.9,33,4.8c0.3-0.1,0.7-0.2,1-0.4c0.1,0,0.2-0.1,0.3-0.1
		c0.1,0.1,0.2,0.1,0.2,0.2c0,0.1,0,0.2,0,0.2C34.4,4.8,34.3,4.8,34.2,4.8z M34.9,8C35,8,35,8,34.9,8c0.1,0,0.2,0,0.2,0
		c0,0,0.5,0,1.4-0.1c0.9-0.1,1.4-0.1,1.6-0.1c0.2,0,0.3-0.1,0.3-0.1c0.1,0,0.1,0,0.2,0c0.1,0,0.1,0.1,0.2,0.1c0.1,0,0.1,0.1,0.1,0.2
		c0,0.1,0,0.1-0.1,0.2c0,0-0.1,0.1-0.2,0.1h-0.1c-0.1,0-0.1,0-0.2,0c-0.1,0-0.1,0-0.2,0c-0.2,0-0.6,0-1.1,0.1c0,0.1,0,0.3,0,0.6
		c0,0.2,0,0.3,0,0.5c0.4,0,0.7-0.1,0.8-0.1c0.2,0,0.2-0.1,0.3-0.1c0.1,0,0.1,0,0.2,0c0.1,0,0.1,0.1,0.2,0.1c0.1,0,0.1,0.1,0.1,0.2
		c0,0.1,0,0.1-0.1,0.2c0,0.1-0.1,0.1-0.2,0.1c0,0-0.1,0-0.1,0c-0.1,0-0.1,0-0.2,0c-0.1,0-0.1,0-0.2,0c-0.2,0-0.5,0-0.9,0.1
		c0,0.6,0,0.9,0,1.1c0,0,0,0.1,0,0.1c0,0,0,0,0,0.1c0.3,0,0.5,0,0.8,0c0.3,0,0.6,0,0.8,0.1c0.2,0.1,0.3,0.2,0.3,0.4
		c0,0.1-0.1,0.2-0.2,0.2c0,0-0.1,0-0.2-0.1c-0.1,0-0.4-0.1-0.9-0.1l-0.5,0c-0.8,0-1.3,0-1.7,0.1c-0.4,0.1-0.7,0.1-0.8,0.1
		c-0.3,0-0.4-0.1-0.5-0.3c0,0,0.1-0.1,0.3-0.1c0.6-0.1,1.2-0.2,1.9-0.2c0-0.2,0-0.6,0-1.2c-0.4,0-0.7,0.1-0.9,0.1
		c-0.3,0.1-0.4,0.1-0.5,0.1S35.1,10,35,10c-0.1,0-0.1-0.1-0.1-0.1c0,0,0-0.1,0-0.2s0-0.1,0.1-0.2l0.1,0c0,0,0,0,0.1,0
		c0,0,0.1,0,0.1,0c0,0,0.4,0,1.2-0.1h0c0-0.3,0-0.6,0-1.1v0c-0.4,0-0.7,0.1-0.9,0.1c-0.3,0.1-0.5,0.1-0.5,0.1s-0.1,0-0.1-0.1
		c-0.1,0-0.1-0.1-0.1-0.1c0,0,0-0.1,0-0.1C34.8,8.1,34.8,8.1,34.9,8L34.9,8z M37.7,4.6c0.1,0,0.3,0,0.4,0.1c0.1,0.1,0.2,0.1,0.3,0.2
		c0.1,0.1,0.1,0.2,0.1,0.4c0,0.4,0,0.7-0.1,1c-0.1,0.3-0.1,0.5-0.1,0.6c0,0,0,0.1,0,0.1c0,0.1-0.1,0.2-0.2,0.2c-0.1,0-0.2,0-0.2,0
		c-0.1,0-0.2,0-0.2,0c-0.2,0-0.5,0-0.9,0.1c-0.4,0-0.8,0.1-1,0.1c-0.1,0-0.1,0-0.1,0c0,0,0,0.1-0.1,0.1c-0.1,0-0.1,0.1-0.2,0.1
		c-0.1,0-0.2,0-0.2-0.1c0,0-0.1-0.1-0.1-0.1C35,6.7,34.9,6,34.9,5.1c0,0,0-0.1,0-0.1c0,0,0-0.1,0-0.1c0,0,0-0.1,0.1-0.1
		c0,0,0.1,0,0.1,0c0.1,0,0.2,0,0.3,0.1c0,0,0,0,0,0C36.2,4.7,37,4.6,37.7,4.6z M36.1,6.7c0.3,0,0.5,0,0.7-0.1c0.4,0,0.6,0,0.7-0.1
		c0,0,0.1,0,0.3,0l0-0.1C37.9,6,38,5.6,38,5.3c0-0.2-0.2-0.3-0.4-0.3c-0.4,0-0.8,0-1.2,0.1c-0.4,0.1-0.6,0.2-0.8,0.2l-0.1,0.1
		c0,0.5,0,0.9,0.1,1.1c0,0.2,0,0.3,0.1,0.3L36.1,6.7z"/>
        <path class="st5" d="M42.6,4.5c0.2,0,0.3,0,0.4,0.1c0.1,0.1,0.2,0.2,0.3,0.3c0.1,0.1,0.1,0.3,0.1,0.5v3.4c0,0.8,0,1.3-0.1,1.7
		c0.1,0,0.2,0,0.2,0c0.1,0,0.1,0,0.2,0.1c0,0.1,0.1,0.1,0.1,0.2c0,0,0,0.1,0,0.1c0,0-0.1,0.1-0.1,0.1c-0.1,0-0.3,0-0.6,0.1
		c-0.3,0-0.7,0.1-1.2,0.2c-0.5,0.1-0.9,0.2-1.1,0.2c-0.3,0.1-0.5,0.1-0.6,0.1c-0.1,0-0.2,0-0.2-0.1c0,0-0.1-0.1-0.1-0.2
		c0-0.1,0-0.2,0-0.3c0.1,0,0.3,0,0.6-0.1c-0.1-0.5-0.1-1.6-0.1-3.3c0-0.6,0-1.5,0-2.6c0,0,0-0.1,0-0.2c0-0.1,0-0.1,0-0.1
		c0-0.1,0.1-0.2,0.3-0.2c0.1,0,0.2,0,0.3,0.1c0,0,0.1,0.1,0.1,0.1C41.6,4.6,42.1,4.5,42.6,4.5z M42.8,7.2h-0.2c-0.2,0-0.4,0-0.8,0
		c-0.3,0-0.6,0.1-0.9,0.1v0.3c0,0.4,0,0.7,0,1.1c0.2,0,0.4,0,0.6-0.1c0.3,0,0.6,0,1,0c0.1,0,0.2,0,0.2,0L42.8,7.2z M42.8,5.5
		c0-0.2,0-0.3-0.1-0.4c-0.1-0.1-0.2-0.1-0.3-0.1c-0.4,0-0.8,0.1-1.3,0.2l-0.1,0c0,0.1,0,0.1,0,0.2c0,0.5,0,1,0,1.4
		c0.2,0,0.4,0,0.6-0.1c0.3,0,0.7,0,1,0c0.1,0,0.1,0,0.2,0V5.5z M41.7,10.7c0.4-0.1,0.7-0.1,1-0.2c0,0,0-0.1,0.1-0.1
		c0,0,0-0.5,0.1-1.4h-0.2c-0.2,0-0.4,0-0.7,0c-0.3,0-0.6,0.1-0.9,0.1c0,0.1,0,0.3,0,0.4c0,0.4,0,0.7,0,0.8c0,0.1,0,0.2,0,0.4
		c0,0,0,0.1,0,0.1C41.2,10.8,41.5,10.7,41.7,10.7z M45.7,6.3c-0.1,0.5-0.2,1-0.4,1.7c-0.3,1.5-0.5,2.5-0.6,3c-0.1,0.5-0.2,0.8-0.2,1
		C44.5,12,44.4,12,44.4,12c-0.1,0-0.1-0.1-0.2-0.1c-0.1-0.1-0.1-0.2-0.1-0.2c0-0.1,0-0.2,0.1-0.4c0-0.2,0.1-0.4,0.2-0.8
		c0.1-0.3,0.2-0.9,0.4-1.7C44.8,8,45,7.2,45.1,6.4c-0.1,0-0.1,0-0.2,0.1c-0.3,0.1-0.5,0.2-0.6,0.3l-0.2,0.2c0,0,0,0-0.1,0
		c-0.1,0-0.2-0.1-0.2-0.2c-0.1-0.1-0.1-0.2-0.1-0.3c0-0.1,0.3-0.2,0.8-0.4C44.8,6,45,5.9,45.2,5.9c0.2-0.7,0.3-1.3,0.3-1.5
		c0.1-0.1,0.1-0.2,0.3-0.2c0.1,0,0.2,0,0.2,0.1c0.1,0.1,0.1,0.1,0.1,0.2c0,0.1-0.1,0.3-0.2,0.7c0,0.1-0.1,0.4-0.2,0.7h0.1
		c0.3,0,0.6,0,0.8,0.1C46.9,6,47,6.1,47.1,6.2c0.1,0.1,0.2,0.3,0.2,0.4c0,1.1-0.1,2.6-0.3,4.5c0,0.1,0,0.3-0.1,0.5
		c0,0.2-0.1,0.3-0.1,0.3c0,0-0.1,0.1-0.2,0.1c-0.1,0-0.2,0.1-0.2,0.1c-0.1,0-0.2-0.1-0.3-0.4c0-0.1,0-0.1,0.1-0.2
		c0.1-0.1,0.1-0.3,0.2-0.5c0.2-1.8,0.3-3.2,0.3-4.3c-0.1-0.3-0.3-0.4-0.8-0.4C45.9,6.3,45.8,6.3,45.7,6.3z"/>
        <path class="st5" d="M54.1,4.9c-0.5,0.1-1.2,0.1-1.9,0.2c0.1,0.4,0.2,0.9,0.2,1.5c0.6-0.1,1.2-0.1,1.7-0.1c0.1,0,0.2,0,0.3,0
		c0.1,0,0.1,0,0.2,0c0.1,0,0.3,0,0.4,0.1c0.1,0.1,0.2,0.2,0.2,0.3c0,0.2-0.1,0.2-0.2,0.2c-0.1,0-0.2,0-0.3,0l-0.3,0
		c-0.4,0-1.1,0-1.9,0.1l0,0.2c0.1,0.5,0.1,0.9,0.1,1.3c0.1,0,0.1,0,0.2,0c1-0.1,1.7-0.1,2-0.1l0.4-0.1c0.1,0,0.2,0.1,0.3,0.1
		c0.2,0.1,0.3,0.2,0.3,0.3c0,0.2-0.1,0.2-0.2,0.2c-0.1,0-0.2,0-0.3,0c-0.1,0-0.2,0-0.3,0c-0.5,0-1.2,0-2.3,0.1c0,0.5,0,0.9,0,1.3
		c0,1-0.3,1.5-1,1.5c-0.2,0-0.4-0.1-0.6-0.2c-0.2-0.1-0.2-0.3-0.2-0.4c0-0.1,0.1-0.2,0.2-0.2c0,0,0.1,0,0.1,0.1c0,0,0.1,0.1,0.1,0.2
		c0.1,0.1,0.2,0.2,0.4,0.2c0.1,0,0.2-0.1,0.3-0.2c0.1-0.2,0.1-0.5,0.1-0.9c0-0.4,0-0.9-0.1-1.4c-1,0.1-1.9,0.1-2.6,0.3
		c-0.2,0-0.3,0.1-0.4,0.1c-0.1,0-0.2,0-0.3,0c-0.1,0-0.2-0.1-0.2-0.2c-0.1-0.1-0.1-0.2-0.1-0.3c0,0,0-0.1,0.1-0.1
		c0.8-0.1,1.6-0.2,2.3-0.2c0.4,0,0.8-0.1,1.2-0.1c0-0.5-0.1-1-0.2-1.5c-0.6,0.1-1.1,0.1-1.4,0.2c-0.4,0.1-0.7,0.1-0.9,0.2
		c-0.2,0-0.3,0.1-0.4,0.1c-0.1,0-0.2-0.1-0.2-0.2c-0.1-0.1-0.1-0.2-0.1-0.3c0-0.1,0-0.1,0.1-0.1c0,0,0.2,0,0.5-0.1
		c0.3,0,1-0.1,1.9-0.2c0.2,0,0.3,0,0.5,0c-0.1-0.3-0.1-0.7-0.2-1.1c0-0.2,0-0.3-0.1-0.4c-0.5,0.1-1,0.2-1.5,0.3l-0.7,0.1
		c-0.1,0-0.1,0-0.2,0C49,5.7,49,5.6,49,5.5c0-0.1,0-0.2,0.1-0.3c0.2,0,0.4,0,0.6-0.1c0.6-0.1,1.2-0.2,2-0.3c0.7-0.1,1.5-0.2,2.3-0.3
		c0.3,0,0.5-0.1,0.6-0.1c0.2,0.1,0.2,0.2,0.3,0.3c0,0.1,0,0.2,0,0.2C54.6,4.9,54.4,4.9,54.1,4.9z"/>
</g>

</svg>
