<?xml version="1.0" encoding="UTF-8"?>
<svg width="77px" height="20px" viewBox="0 0 77 20" version="1.1" xmlns="http://www.w3.org/2000/svg"
     xmlns:xlink="http://www.w3.org/1999/xlink">
    <title>light_console_icon</title>
    <style type="text/css">
        .st0{fill:#02389D;}
        .st1{fill:#02389C;}
        .st2{fill:#F9C003;}
        .st3{fill:#F9C004;}
        .st4{fill:#FFFFFF;}
        .st5{fill:#1C489D;}
    </style>
    <defs>
        <defs>
            <filter id="invert">
                <feColorMatrix type="matrix" values="-1 0 0 0 1
                                           0 -1 0 0 1
                                           0 0 -1 0 1
                                           0 0 0 1 0"/>
            </filter>
        </defs>
    </defs>
    <g id="IDE-端插件优化" stroke="none" stroke-width="1" fill="none" fill-rule="evenodd" filter="url(#invert)">
        <g id="Artboard" transform="translate(-2602.000000, -1470.000000)">
            <g id="light_console_icon" transform="translate(2602.000000, 1470.000000)">
                <rect id="Rectangle-Copy-35" fill="#087CFA" opacity="0.16" x="0" y="0" width="77" height="20"
                      rx="4"></rect>
                <g id="Group-10-Copy" transform="translate(5.000000, 4.000000)">
                    <g id="Tongyi-colored-Copy">
                        <g id="Rectangle"></g>
                        <g id="Group" mask="url(#mask-2)">
                            <g transform="translate(-2, -2)">
                                <path class="st0" d="M8.3,7.1c-0.1,0-0.2,0-0.3,0C7.7,7,7.5,6.9,7.4,6.6C7.3,6.5,7.3,6.3,7.2,6.1c0-0.3,0-0.6,0-0.9
	c0,0,0-0.1,0.1-0.1c0.1,0,0.1,0,0.2,0c0,0,0,0,0,0c0,0,0,0,0,0c0,0.2,0.1,0.3,0.3,0.3c0.1,0,0.2,0,0.3,0c0.9,0,1.8,0,2.7,0
	c1,0,1.7,0.4,2.4,1.1c0.4,0.5,0.7,1,0.8,1.7c0.1,0.3,0.1,0.6,0.1,0.8c0,0.9,0,1.8,0,2.7c0,0.2,0,0.4,0,0.6c0,0,0,0.1,0,0.1
	c0,0.2,0.1,0.2,0.3,0.2c0,0,0,0,0,0c0,0,0.1,0,0.1,0.1c0,0.1,0,0.1,0,0.2c0,0,0,0.1-0.1,0.1c-0.1,0-0.3,0-0.4,0c-0.3,0-0.7,0-1-0.1
	c-0.2,0-0.3-0.1-0.4-0.2c-0.1,0-0.1-0.1-0.2-0.2c0,0,0,0-0.1,0c-0.2,0.1-0.3,0.3-0.5,0.4c-0.5,0.3-1,0.4-1.5,0.4
	c-0.5,0-1-0.1-1.4-0.3c-0.5-0.2-1-0.6-1.4-1.1C7,11.5,6.8,10.7,6.8,9.9C6.8,9.2,7,8.6,7.4,8C7.6,7.7,7.9,7.4,8.3,7.1
	C8.2,7.1,8.2,7.1,8.3,7.1z M10.5,12.5c1.4,0,2.5-1.1,2.5-2.5c0-1.5-1.2-2.5-2.5-2.5C9.2,7.4,8,8.5,8,9.9C8,11.2,9.1,12.4,10.5,12.5z
	"/>
                                <path class="st1" d="M6.2,8.4c0,1.2,0,2.5,0,3.7c0,0.1,0,0.2,0,0.2c0.1,0.3,0.2,0.4,0.5,0.5c0.1,0,0.1,0,0.2,0c0,0,0.1,0,0.1,0.1
	c0,0.1,0,0.1,0,0.2c0,0,0,0.1,0,0.1c0,0,0,0-0.1,0c-0.5,0-1.1,0-1.6,0c-0.2,0-0.3,0-0.5,0c-0.3-0.1-0.5-0.2-0.6-0.5
	c0-0.1,0-0.2,0-0.2c0-1.7,0-3.5,0-5.2c0-0.9,0-1.7,0-2.6c0-0.1,0-0.1-0.1-0.1c-0.3,0-0.6,0-0.9,0c-0.1,0-0.2,0-0.3,0
	c-0.2,0-0.2,0.1-0.3,0.3c0,0,0,0,0,0c0,0,0,0.1-0.1,0.1c-0.1,0-0.1,0-0.2,0c0,0-0.1,0-0.1-0.1c0-0.1,0-0.3,0-0.4c0-0.2,0-0.4,0-0.6
	c0-0.1,0.1-0.3,0.1-0.4c0.1-0.2,0.3-0.4,0.6-0.4c0.1,0,0.2,0,0.3,0c1.8,0,3.7,0,5.5,0c0.1,0,0.2,0,0.3,0c0.2,0,0.3-0.1,0.3-0.3
	c0,0,0-0.1,0.1-0.1c0.1,0,0.1,0,0.2,0c0,0,0,0,0,0c0,0.4,0,0.9-0.1,1.3c0,0.1-0.1,0.1-0.1,0.2C9.4,4.4,9.3,4.5,9.1,4.5
	c-0.1,0-0.1,0-0.2,0c-0.8,0-1.7,0-2.5,0c0,0,0,0-0.1,0c-0.1,0-0.1,0-0.1,0.1c0,1,0,2.1,0,3.2C6.2,8,6.2,8.2,6.2,8.4
	C6.2,8.4,6.2,8.4,6.2,8.4z"/>
                                <path class="st2" d="M14.6,4c0.1,0,0.1,0.1,0.2,0.1c0.3,0.2,0.4,0.5,0.4,0.8c0,0.3-0.2,0.5-0.4,0.7c-0.2,0.2-0.4,0.2-0.7,0.2
	c-0.2,0-0.4,0-0.6-0.1c-0.4-0.1-0.6-0.4-0.7-0.7c0-0.1,0-0.2,0.1-0.3c0,0,0.1,0,0.1-0.1c0.1,0,0.2,0,0.2,0.1c0,0,0.1,0.1,0.1,0.1
	c0.1,0.1,0.1,0.2,0.2,0.2c0.1,0.1,0.3,0.1,0.5,0.1c0.1,0,0.2-0.1,0.2-0.2c0-0.1,0.1-0.2,0-0.2c0-0.2-0.1-0.3-0.2-0.3
	c-0.1,0-0.1,0-0.2-0.1c-0.1,0-0.1,0-0.2-0.1c-0.1-0.1-0.2-0.1-0.2-0.3c0-0.1,0.1-0.2,0.2-0.3c0,0,0.1,0,0.2-0.1
	c0.1,0,0.2-0.1,0.2-0.1c0.1-0.1,0.1-0.2,0.1-0.3c0-0.1-0.1-0.2-0.2-0.2c-0.1,0-0.2,0-0.4,0.1c-0.1,0-0.1,0.1-0.2,0.2
	c0,0.1-0.1,0.1-0.1,0.1c-0.1,0.1-0.3,0.1-0.4-0.1c-0.1-0.1-0.1-0.2,0-0.3c0.1-0.2,0.2-0.4,0.5-0.5c0.2-0.1,0.3-0.1,0.5-0.1
	c0.5,0,1,0.3,1.1,0.8c0,0.3-0.1,0.5-0.3,0.7C14.7,3.9,14.6,4,14.6,4z"/>
                                <path class="st3" d="M12.4,3.6c0,0.1,0,0.1,0,0.2c0,0,0,0.1,0.1,0.1c0.1,0,0.2,0,0.3,0c0,0,0.1,0,0.1,0c0.1,0,0.2,0.1,0.2,0.2
	c0,0,0,0.1,0,0.1c0,0.1-0.1,0.2-0.2,0.2c-0.1,0-0.2,0-0.3,0c-0.2,0-0.1,0-0.1,0.1c0,0.1,0,0.2,0,0.3c0,0.1-0.1,0.2-0.2,0.2
	c-0.1,0-0.1,0-0.2,0c-0.1,0-0.2-0.1-0.2-0.2c0,0,0,0,0-0.1c0-0.1,0-0.2,0-0.3s0-0.1-0.1-0.1c-0.1,0-0.2,0-0.3,0
	c-0.2,0-0.4-0.2-0.3-0.5c0-0.1,0.1-0.1,0.1-0.1c0,0,0.1,0,0.1,0c0.1,0,0.2,0,0.3,0c0.1,0,0.1,0,0.1-0.1c0-0.1,0-0.2,0-0.3
	c0,0,0-0.1,0-0.1c0-0.2,0.3-0.3,0.5-0.2c0.1,0.1,0.1,0.1,0.1,0.2C12.4,3.5,12.4,3.6,12.4,3.6C12.4,3.6,12.4,3.6,12.4,3.6z"/>
                                <circle class="st0" cx="10.6" cy="10" r="1.8"/>
                                <circle class="st2" cx="10.9" cy="9.8" r="1"/>
                                <circle class="st4" cx="11.1" cy="9.6" r="0.4"/>
                            </g>
                        </g>
                    </g>
                    <text fill-rule="nonzero" font-family="SFPro-Regular, SF Pro" font-size="10"
                          font-weight="bold" fill="#1C489D">
                        <tspan x="16" y="10">TA+3 牛码</tspan>
                    </text>
                    <!--                    <g id="右箭头-arrowright" transform="translate(57.000000, 0.000000)" fill="#19191C"
                                           fill-rule="nonzero">
                                            <rect id="Rectangle" opacity="0" x="0" y="0" width="12" height="12"></rect>
                                            <path d="M7.42935937,3 L10.0074844,5.62514063 L10.0170938,5.63521875 C10.1839813,5.81554718 10.1833063,6.09413863 10.0155469,6.27365625 L7.43742187,9.03285938 L6.7524375,8.39282813 L8.5873125,6.42904688 L1.921875,6.42904688 L1.921875,5.49154688 L8.56228125,5.49154688 L6.7605,3.65685938 L7.42940625,3 L7.42935937,3 Z"
                                                  id="Path"></path>
                                        </g>-->
                </g>
            </g>
        </g>
    </g>
</svg>