<?xml version="1.0" encoding="utf-8"?>
<!-- Generator: Adobe Illustrator 22.0.0, SVG Export Plug-In . SVG Version: 6.00 Build 0)  -->
<svg version="1.1" id="图层_1" xmlns="http://www.w3.org/2000/svg" xmlns:xlink="http://www.w3.org/1999/xlink" x="0px"
     y="0px"
     width="15" height="15" viewBox="0 0 256 256" style="enable-background:new 0 0 256 256;" xml:space="preserve">
<style type="text/css">
	.st0{fill:#8B5CF6;}
	.st1{fill:#A78BFA;}
	.st2{fill:#F59E0B;}
	.st3{fill:#D97706;}
	.st4{fill:#F3F4F6;}
</style>
    <path class="st0" d="M121.6,112c-2.2-0.1-4,0-5.8-0.3c-4.5-0.5-7.7-2.9-9.6-6.9c-1.2-2.7-1.8-5.5-2.1-8.4c-0.6-5-0.3-9.9-0.3-14.9
	c0-0.7,0.3-1,1-0.9c1.1,0,2.2,0,3.3,0c0.5,0,0.8,0.2,0.8,0.8c0,0.1,0,0.3,0,0.4c0.4,3.5,1.9,5.1,5.4,5.7c1.7,0.3,3.3,0.3,5,0.3
	c15.4,0,30.8,0.1,46.3,0c16.3-0.2,29.3,6.5,39.7,18.6c7.1,8.2,11.5,17.7,13.5,28.3c0.9,4.7,0.9,9.4,0.9,14.1c0,15.1,0,30.3,0,45.4
	c0,3.4-0.1,6.8,0.1,10.2c0.1,0.8,0.2,1.7,0.4,2.5c0.7,2.6,2.5,3.9,5.1,4.2c0.2,0,0.5,0.1,0.7,0c0.6,0,0.9,0.2,0.9,0.9
	c0,1.1,0,2.2,0,3.3c0,0.8-0.3,0.9-1,0.9c-2.4,0-4.7,0.1-7.1,0.1c-5.6,0-11.1-0.3-16.6-1.7c-2.6-0.6-5.2-1.5-7.5-3
	c-1.4-0.8-2.5-1.9-3.4-3.2c-0.5-0.8-0.5-0.8-1.3-0.2c-2.7,2.3-5.7,4.3-8.8,6c-7.8,4.3-16.1,6.4-25,6.7c-8.4,0.2-16.5-1-24.3-4.3
	c-9.2-3.9-16.7-10-22.8-17.8c-9.3-11.6-13.1-25-12.7-39.7c0.3-11.2,3.4-21.6,9.6-30.9c3.9-5.8,8.6-10.7,14.1-15
	C120.4,112.9,120.8,112.6,121.6,112z M159.6,202.8c23.5,0,42.6-19,42.6-42.6c0-24.8-20.5-42.6-42.4-42.6
	c-22.8-0.1-42.7,18.6-42.8,42.6C117,182.5,134.9,202.6,159.6,202.8z"/>
    <path class="st1" d="M86.2,134.9c0,20.9,0,41.9,0,62.8c0,1.4,0,2.8,0.3,4.1c1,4.4,3.6,7.2,7.9,8.6c1.1,0.4,2.2,0.6,3.3,0.7
	c0.7,0,1,0.4,1,1.1c0,1,0.1,2.1,0.1,3.1c0.1,0.7-0.2,0.9-0.8,0.9c-0.3,0-0.6,0-0.9,0c-9.2,0-18.4,0-27.6,0c-2.7,0-5.3-0.1-7.9-0.7
	c-5-1.2-8.1-4.2-9.3-9.2c-0.3-1.4-0.5-2.8-0.5-4.2c-0.1-29.4-0.3-58.7-0.4-88.1c-0.1-14.5-0.1-29.1-0.2-43.6c0-2.1,0.2-1.9-2-2
	c-5.1,0-10.2,0-15.2,0c-1.7,0-3.5,0.1-5.1,0.5c-3,0.7-4.2,2.1-4.6,5.2c0,0.2-0.1,0.5-0.1,0.7c0,0.6-0.3,0.9-0.9,0.9
	c-1,0-2.1,0-3.1,0c-0.8,0-1-0.3-1-1c0-2.3-0.1-4.6-0.1-6.9c0-3.2,0.1-6.3,0.6-9.4c0.4-2.3,0.9-4.6,1.9-6.8c1.8-4,4.9-6.3,9.3-7
	c1.5-0.2,3-0.2,4.6-0.2c31.1,0,62.3,0,93.4,0c2,0,3.9-0.1,5.9-0.4c2.9-0.5,4.6-2,5-5c0.1-0.6,0.3-0.9,0.9-0.9c1,0,2.1,0,3.1,0
	c0.4,0,0.8,0.1,0.8,0.6c0.3,7.2,0.8,14.5-1.1,21.6c-0.3,1.3-0.9,2.5-1.5,3.7c-1.6,2.7-3.9,4.1-7,4.4c-0.9,0.1-1.9,0.1-2.8,0.1
	c-14.3,0-28.6,0-42.9,0c-0.3,0-0.7,0-1,0c-1.6,0-1.6,0-1.6,1.6c0,17.7,0,35.5,0,53.2C86.3,127.1,86.3,131,86.2,134.9
	C86.3,134.9,86.3,134.9,86.2,134.9z"/>
    <path class="st2" d="M228.7,60c1.1,0.7,2.1,1.3,3,2.1c4.3,3.4,6.7,7.8,6.3,13.5c-0.4,4.9-2.7,8.8-6.5,11.8c-3.2,2.6-7,3.8-11,4.1
	c-3.4,0.3-6.8,0.1-10.1-0.9C204,88.7,200,84.6,198.6,78c-0.5-2.3,0.3-3.9,2.3-5.1c0.6-0.4,1.3-0.7,2-0.9c1.6-0.5,3-0.1,4.2,1
	c0.8,0.7,1.3,1.6,1.9,2.5c1,1.6,2.2,3,3.8,4c2.5,1.6,5.2,2,8,1c1.9-0.6,3.2-1.9,3.9-3.8c0.5-1.3,0.9-2.6,0.7-4
	c-0.2-2.7-1.8-4.4-4.2-5.4c-1.2-0.5-2.4-0.7-3.7-1c-1-0.2-1.9-0.4-2.8-0.9c-1.8-1-2.8-2.5-2.8-4.7c0-2.1,1.1-3.5,2.9-4.5
	c0.8-0.4,1.7-0.7,2.6-0.9c1.4-0.4,2.8-1,3.9-2c1.8-1.6,2.2-3.6,1.7-5.8c-0.5-2.1-2-3.3-4.1-3.8c-2.2-0.5-4.2,0.1-6,1.4
	c-1.1,0.8-2,1.7-2.8,2.8c-0.6,0.9-1.3,1.8-2.1,2.4c-2.4,1.8-5.6,1.2-7.1-1.5c-1-1.8-1-3.6-0.4-5.6c1.3-4.1,4.2-6.7,7.9-8.5
	c2.7-1.2,5.5-2.2,8.4-2.3c8.4-0.3,16.5,4.4,17.9,13.8c0.7,4.9-1.1,8.9-4.8,12.1C229.6,59.1,229.1,59.4,228.7,60z"/>
    <path class="st3" d="M191,53.7c0,1,0,2.1,0,3.1c0,0.7,0.3,0.9,1,0.9c1.8,0,3.5,0,5.3,0c0.7,0,1.4,0.1,2.1,0.2c2.1,0.5,3.4,1.9,3.5,4
	c0,0.6,0,1.2,0,1.8c-0.3,2.1-1.6,3.4-3.6,3.7c-2,0.3-3.9,0.1-5.9,0.2c-2.6,0.1-2.3-0.3-2.3,2.3c0,1.5,0,3,0,4.4
	c-0.1,2.4-1.3,3.7-3.6,4.1c-1,0.2-2.1,0.1-3.1-0.1c-2-0.5-2.9-1.6-3.1-3.6c0-0.4,0-0.8,0-1.2c0-1.5,0-3,0-4.4c0-1.4,0-1.5-1.5-1.5
	c-1.7,0-3.4,0-5,0c-4.1-0.1-6.4-4-4.5-7.6c0.5-1,1.4-1.7,2.5-2c0.7-0.2,1.4-0.3,2.2-0.3c1.7,0,3.4,0,5,0c1.3,0,1.3,0,1.4-1.4
	c0-1.5,0-3,0-4.4c0-0.5,0-1.1,0.1-1.6c0.4-3.7,4.4-5.7,7.6-3.7c1.5,0.9,2,2.3,2.1,4C191,51.6,190.9,52.6,191,53.7
	C190.9,53.7,190.9,53.7,191,53.7z"/>
    <circle class="st0" cx="160.5" cy="161.5" r="30.5"/>
    <circle class="st2" cx="166.4" cy="158" r="17.6"/>
    <circle class="st4" cx="169.9" cy="154.5" r="7"/>
</svg>